Coordinates
version=1
nRows=6
nColumns=36
inDegrees=yes

Units are S.I. units (second, meters, Newtons, ...)
If the header above contains a line with 'inDegrees', this indicates whether rotational values are in degrees (yes) or radians (no).

endheader
time	pelvis_tilt	pelvis_list	pelvis_rotation	pelvis_tx	pelvis_ty	pelvis_tz	hip_flexion_r	hip_adduction_r	hip_rotation_r	knee_angle_r	knee_angle_r_beta	ankle_angle_r	subtalar_angle_r	mtp_angle_r	hip_flexion_l	hip_adduction_l	hip_rotation_l	knee_angle_l	knee_angle_l_beta	ankle_angle_l	subtalar_angle_l	mtp_angle_l	lumbar_extension	lumbar_bending	lumbar_rotation	arm_flex_r	arm_add_r	arm_rot_r	elbow_flex_r	pro_sup_r	arm_flex_l	arm_add_l	arm_rot_l	elbow_flex_l	pro_sup_l
      1.74000000	     -5.08896405	      3.28816667	     81.23102481	     -0.22706018	      0.96217535	     -1.01206316	     15.25202364	    -10.37009441	      1.35608821	     66.58445423	      1.16211796	    -12.14739243	    -31.77564704	     -7.49999995	      2.26233851	      8.56367090	    -16.38996795	     13.65239535	      0.23827925	      6.99995802	      0.53827471	     -7.49999995	    -15.04765161	     -6.79471379	      3.20143568	     10.74522195	     -8.39675953	    -39.45830723	     35.46301321	    103.63917551	      0.21528023	     -2.94934454	    -43.21964541	     26.45884196	     80.13395731
      1.75000000	     -4.69596607	      3.37154530	     81.68843538	     -0.22782623	      0.96315236	     -1.02324987	     16.49395556	     -9.99343111	      0.69439984	     66.37524856	      1.15846663	     -9.74083319	    -32.33189300	     -7.49999994	      1.00852903	      8.37498869	    -16.12435092	     12.99022598	      0.22672221	      7.62387902	      1.76844616	     -7.49999994	    -15.47373942	     -6.26072802	      2.68440680	     10.28363503	     -8.45728413	    -39.42881463	     35.85385248	    102.45280465	      1.03883622	     -3.12167530	    -41.85163658	     27.26122515	     79.48054711
      1.76000000	     -4.43653780	      2.95188883	     82.22500542	     -0.22870196	      0.96313730	     -1.03397724	     18.31044962	     -9.82413967	     -0.21901862	     65.95706773	      1.15116800	     -7.88512851	    -32.69722592	     -7.49999993	      0.51917781	      8.22795615	    -15.31680353	     12.67855447	      0.22128252	      7.83074253	      1.60067296	     -7.49999993	    -15.28652809	     -5.80224848	      2.12100150	      9.78982658	     -8.59884257	    -38.95915713	     35.86473919	     99.92453071	      2.04916570	     -3.39324608	    -40.77864814	     27.56822559	     78.12882995
      1.77000000	     -3.99218169	      2.95404902	     82.58431986	     -0.22921328	      0.96366821	     -1.04518489	     19.47606383	     -9.39385596	     -0.93247580	     65.07513821	      1.13577542	     -5.83868443	    -32.63880821	     -7.49999991	     -0.63647015	      7.87433919	    -15.54907368	     12.03266580	      0.21000964	      8.33581916	      3.09789625	     -7.49999991	    -15.57981591	     -5.20393495	      1.80007529	      9.60724360	     -8.37783850	    -40.77565956	     36.00124105	    105.98371717	      2.87646145	     -3.68971745	    -39.56113113	     28.21929127	     82.48697980
      1.78000000	     -3.65650990	      2.97825672	     83.17358826	     -0.23035125	      0.96404019	     -1.05642178	     20.47204625	     -9.17291152	     -1.82406167	     63.85470253	      1.11447480	     -4.50153723	    -32.59022747	     -7.49999991	     -1.72228977	      7.68139795	    -15.07270066	     11.53290455	      0.20128716	      8.56625405	      3.42142457	     -7.49999991	    -15.86506064	     -4.66551373	      1.25536127	      8.99182953	     -8.60362668	    -40.24318284	     36.23758112	    103.59276575	      3.96468969	     -3.79681940	    -38.76376465	     28.67778226	     81.33713637
      1.79000000	     -3.38508971	      2.94031314	     83.73708949	     -0.23115392	      0.96408228	     -1.06745955	     21.52141340	     -9.00011451	     -2.70502366	     62.45339929	      1.09001745	     -3.59586026	    -32.41980609	     -7.49999991	     -2.70242486	      7.47982602	    -14.87750351	     11.05991796	      0.19303198	      8.89194934	      4.25071702	     -7.49999991	    -16.09199416	     -4.22081899	      0.72035542	      8.45943097	     -8.68536717	    -40.04807524	     36.43513674	    102.09571316	      5.05318780	     -4.03547686	    -37.72126616	     29.15832369	     80.61427790
